<svg xmlns="http://www.w3.org/2000/svg" width="41.432" height="72.698" viewBox="0 0 41.432 72.698">
  <g id="Layer_2-2" transform="translate(-76.063 -35.143)">
    <path id="Path_21720" data-name="Path 21720" d="M418.873,134.82a7.2,7.2,0,0,1-.473.573c-.091.1-.182.191-.273.291v-.018c.146-.145.282-.291.418-.445.118-.127.227-.264.336-.4Z" transform="translate(-301.388 -99.678)" fill="#06556c"/>
    <path id="Path_21729" data-name="Path 21729" d="M344.385,212.911a14.053,14.053,0,0,0-11.092-4.864c-.218,0-.427,0-.636.009h-10.31V188.1h-7.473v19.957h7.437v7.437h-7.437v28.1h15.393c.455.027.945.045,1.446.045.527,0,1.009-.018,1.491-.045.664-.046,1.255-.1,1.837-.191a.8.8,0,0,0,.136-.018h.045a15.808,15.808,0,0,0,9.165-4.746c2.8-3.291,4.219-7.637,4.219-12.919s-1.418-9.6-4.219-12.81Zm-6.019,20.375a8.877,8.877,0,0,1-6.655,2.837h-9.365V215.493h8.664c.164,0,.318-.009.473-.009a8.926,8.926,0,0,1,6.883,2.837,10.759,10.759,0,0,1,2.609,7.546,10.4,10.4,0,0,1-2.609,7.41Z" transform="translate(-231.382 -135.8)" fill="#06556c"/>
    <rect id="Rectangle_3010" data-name="Rectangle 3010" width="7.437" height="7.437" transform="translate(76.063 72.265)" fill="#f07a47"/>
    <path id="Path_21731" data-name="Path 21731" d="M322.337,208.075V188.128h-7.464v19.957" transform="translate(-231.382 -135.82)" fill="#06556c"/>
  </g>
</svg>
