<svg version="1.2" xmlns="http://www.w3.org/2000/svg" viewBox="0 0 41 55" width="41" height="55"><style>.a{fill:#06556c}.b{fill:#f07a47}</style><path class="a" d="m40.9-17q-0.1 0.1-0.1 0.1-0.1 0.1-0.2 0.2 0 0.1-0.1 0.1 0 0.1-0.1 0.2-0.1 0.1-0.3 0.3v-0.1q0.2-0.2 0.4-0.4 0.2-0.2 0.4-0.4z"/><path class="a" d="m36.4 24.4q-1-1.2-2.2-2.1-1.3-0.9-2.7-1.5-1.4-0.7-2.9-1-1.6-0.2-3.1-0.2-0.3 0-0.6 0h-10.2v-19.7h-7.4v19.7h7.4v7.3h-7.4v27.8h15.2q0.7 0 1.4 0 0.8 0 1.5 0c0.7-0.1 1.2-0.1 1.8-0.2q0 0 0.1 0 0 0 0 0 0 0 0 0 0 0 0.1 0 1.3-0.2 2.5-0.6 1.3-0.4 2.4-1 1.2-0.6 2.2-1.4 1-0.8 1.9-1.7c2.8-3.3 4.2-7.6 4.2-12.8 0-5.2-1.4-9.4-4.2-12.6zm-5.9 20.1q-0.6 0.7-1.4 1.2-0.7 0.5-1.6 0.9-0.8 0.4-1.7 0.5-0.9 0.2-1.9 0.2h-9.2v-20.4h8.5q0.3 0 0.5 0 1 0 1.9 0.2 0.9 0.1 1.8 0.5 0.9 0.4 1.7 0.9 0.8 0.5 1.4 1.2 0.7 0.8 1.2 1.7 0.5 0.9 0.8 1.8 0.3 1 0.5 2 0.1 1 0.1 2 0 1-0.1 2-0.2 0.9-0.5 1.9-0.3 0.9-0.8 1.8-0.5 0.8-1.2 1.6z"/><path fill-rule="evenodd" class="b" d="m7.3 19.6v7.4h-7.3v-7.4z"/><path class="a" d="m14.7 19.6v-19.7h-7.4v19.7"/></svg>